<svg width="25" height="24" viewBox="0 0 25 24" fill="none" xmlns="http://www.w3.org/2000/svg">
<path fill-rule="evenodd" clip-rule="evenodd" d="M5.81444 12C5.81444 11.2206 5.94112 10.4732 6.16749 9.77233L2.20737 6.68402C1.43554 8.28433 1.00079 10.0877 1.00079 12C1.00079 13.9108 1.43518 15.7129 2.20572 17.3123L6.16363 14.218C5.93947 13.5203 5.81444 12.7757 5.81444 12Z" fill="#FBBC05"/>
<path fill-rule="evenodd" clip-rule="evenodd" d="M12.7675 4.90912C14.4256 4.90912 15.9231 5.50912 17.0998 6.49088L20.5227 3C18.4369 1.14544 15.7627 0 12.7675 0C8.11746 0 4.121 2.71575 2.2074 6.684L6.16733 9.77231C7.07979 6.94369 9.68076 4.90912 12.7675 4.90912Z" fill="#EA4335"/>
<path fill-rule="evenodd" clip-rule="evenodd" d="M12.7675 19.0908C9.68095 19.0908 7.07998 17.0563 6.16751 14.2277L2.2074 17.3154C4.121 21.2842 8.11746 24 12.7675 24C15.6375 24 18.3776 22.9592 20.434 21.0092L16.6751 18.0414C15.6145 18.7237 14.2789 19.0908 12.7675 19.0908Z" fill="#34A853"/>
<path fill-rule="evenodd" clip-rule="evenodd" d="M23.9992 12C23.9992 11.2909 23.8922 10.5272 23.7317 9.81824H12.7675V14.4546H19.0787C18.7631 16.0354 17.9043 17.2506 16.6751 18.0414L20.434 21.0092C22.5942 18.9617 23.9992 15.9114 23.9992 12Z" fill="#4285F4"/>
</svg>
